HIERARCHY
ROOT Pelvis
{
	OFFSET 0.000000 0.000000 0.000000
	CHANNELS 6 Xposition Yposition Zposition Xrotation Yrotation Zrotation
	JOINT LeftUpLeg_virtual
	{
		OFFSET 0.000000 0.000000 0.000000
		CHANNELS 3 Xrotation Yrotation Zrotation
		JOINT LeftUpLeg
		{
			OFFSET 8.479700 -4.795502 -0.379100
			CHANNELS 3 Xrotation Yrotation Zrotation
			JOINT LeftLeg
			{
				OFFSET 0.024144 -32.555107 0.112900
				CHANNELS 3 Xrotation Yrotation Zrotation
				JOINT LeftFoot
				{
					OFFSET -0.024144 -32.638630 -3.012600
					CHANNELS 3 Xrotation Yrotation Zrotation
					JOINT LeftToeBase
					{
						OFFSET 0.970200 -13.225400 11.864200
						CHANNELS 3 Xrotation Yrotation Zrotation
						End Site
						{
							OFFSET 0 0 0
						}
					}
				}
			}
		}
	}
	JOINT RightUpLeg_virtual
	{
		OFFSET 0.000000 0.000000 0.000000
		CHANNELS 3 Xrotation Yrotation Zrotation
		JOINT RightUpLeg
		{
			OFFSET -8.479700 -4.795502 -0.379100
			CHANNELS 3 Xrotation Yrotation Zrotation
			JOINT RightLeg
			{
				OFFSET -0.023144 -32.555092 0.112900
				CHANNELS 3 Xrotation Yrotation Zrotation
				JOINT RightFoot
				{
					OFFSET 0.023144 -32.638641 -3.012700
					CHANNELS 3 Xrotation Yrotation Zrotation
					JOINT RightToeBase
					{
						OFFSET -0.970200 -13.225400 11.864200
						CHANNELS 3 Xrotation Yrotation Zrotation
						End Site
						{
							OFFSET 0 0 0
						}
					}
				}
			}
		}
	}
	JOINT Hips_virtual
	{
		OFFSET 0.000000 0.000000 0.000000
		CHANNELS 3 Xrotation Yrotation Zrotation
		JOINT Hips
		{
			OFFSET -0.000000 -0.000000 -0.000000
			CHANNELS 3 Xrotation Yrotation Zrotation
			JOINT Spine
			{
				OFFSET 0.000000 7.722000 1.166200
				CHANNELS 3 Xrotation Yrotation Zrotation
				JOINT Spine1
				{
					OFFSET 0.000000 12.024101 0.248800
					CHANNELS 3 Xrotation Yrotation Zrotation
					JOINT Spine2
					{
						OFFSET 0.000000 11.502998 -0.491200
						CHANNELS 3 Xrotation Yrotation Zrotation
						JOINT Neck_virtual
						{
							OFFSET 0.000000 0.000000 0.000000
							CHANNELS 3 Xrotation Yrotation Zrotation
							JOINT Neck
							{
								OFFSET 0.000000 18.430702 -3.123100
								CHANNELS 3 Xrotation Yrotation Zrotation
								JOINT Head
								{
									OFFSET 0.000000 9.051102 1.034000
									CHANNELS 3 Xrotation Yrotation Zrotation
									End Site
									{
										OFFSET 0 0 0
									}
								}
							}
						}
						JOINT LeftShoulder_virtual
						{
							OFFSET 0.000000 0.000000 0.000000
							CHANNELS 3 Xrotation Yrotation Zrotation
							JOINT LeftShoulder
							{
								OFFSET 6.197800 13.665199 -4.064700
								CHANNELS 3 Xrotation Yrotation Zrotation
								JOINT LeftArm
								{
									OFFSET 7.778100 -0.187103 -1.709300
									CHANNELS 3 Xrotation Yrotation Zrotation
									JOINT LeftForeArm
									{
										OFFSET 22.049376 0.000000 0.000000
										CHANNELS 3 Xrotation Yrotation Zrotation
										JOINT LeftHand
										{
											OFFSET 23.009392 0.000000 0.000000
											CHANNELS 3 Xrotation Yrotation Zrotation
											End Site
											{
												OFFSET 0 0 0
											}
										}
									}
								}
							}
						}
						JOINT RightShoulder_virtual
						{
							OFFSET 0.000000 0.000000 0.000000
							CHANNELS 3 Xrotation Yrotation Zrotation
							JOINT RightShoulder
							{
								OFFSET -6.197800 13.665199 -4.064700
								CHANNELS 3 Xrotation Yrotation Zrotation
								JOINT RightArm
								{
									OFFSET -7.778100 -0.187103 -1.709300
									CHANNELS 3 Xrotation Yrotation Zrotation
									JOINT RightForeArm
									{
										OFFSET -22.049376 0.000000 0.000000
										CHANNELS 3 Xrotation Yrotation Zrotation
										JOINT RightHand
										{
											OFFSET -23.009392 0.000000 0.000000
											CHANNELS 3 Xrotation Yrotation Zrotation
											End Site
											{
												OFFSET 0 0 0
											}
										}
									}
								}
							}
						}
					}
				}
			}
		}
	}
}
MOTION
Frames: 9
Frame Time: 0.03333333
6.926888 53.655914 93.697220 0.000000 0.000000 0.000000 26.568726 -56.065908 32.888430 -61.803445 -43.585199 31.146619 84.316684 3.512399 -41.609898 -10.546685 -2.589826 -22.949410 0.000000 0.000000 0.000000 26.568726 -56.065908 32.888430 -85.239497 24.017752 -17.403675 101.533597 6.728830 0.633387 -27.004101 -4.917996 14.732167 0.000000 0.000000 0.000000 26.568726 -56.065908 32.888430 -0.000002 -0.000002 -0.000001 36.076038 -1.659824 -12.464495 -1.957389 5.375157 -0.991199 0.000000 0.000000 0.000000 2.116141 5.078857 -0.821978 -12.375890 22.130629 -4.641756 0.000000 0.000000 0.000000 2.116141 5.078857 -0.821978 5.941491 -18.519091 -1.957347 -27.184727 20.945579 -31.616362 -81.078362 -81.172652 -70.319926 0.000000 0.000000 0.000000 2.116141 5.078857 -0.821978 0.012695 27.801558 18.707827 -54.993900 -1.387938 14.818753 -31.712862 58.823010 27.684017 0.000000 0.000000 0.000000 
7.212933 53.811882 94.562958 0.000000 0.000000 0.000000 28.267139 -56.527052 34.123393 -61.962144 -43.461573 31.755947 85.389256 3.167183 -42.445476 -11.461823 -2.740559 -22.098257 0.000000 0.000000 0.000000 28.267139 -56.527052 34.123393 -85.293627 24.440374 -17.572704 100.417182 6.914900 0.647850 -26.486423 -4.555584 15.606376 0.000000 0.000000 0.000000 28.267139 -56.527052 34.123393 -0.000001 -0.000001 -0.000000 35.757847 -1.999449 -13.934428 -2.211909 5.602688 -0.808050 0.000000 0.000000 0.000000 1.905221 5.369616 -0.299749 -12.094913 22.484180 -4.602857 0.000000 0.000000 0.000000 1.905221 5.369616 -0.299749 6.664366 -18.263929 -2.232492 -27.495671 17.707793 -32.135115 -65.949479 -80.866619 -55.485445 0.000000 0.000000 0.000000 1.905221 5.369616 -0.299749 0.392902 28.446676 18.972628 -54.816902 -0.739627 15.725245 -32.159526 59.955701 28.371950 0.000000 0.000000 0.000000 
7.359200 54.088837 95.379135 0.000000 0.000000 0.000000 29.319034 -56.776634 35.087911 -61.996746 -43.378268 31.608165 86.205368 3.169750 -43.230272 -12.344875 -2.767185 -21.463345 0.000000 0.000000 0.000000 29.319034 -56.776634 35.087911 -84.843626 24.658243 -18.168959 99.334931 6.978332 0.396975 -26.219648 -4.150347 16.380612 0.000000 0.000000 0.000000 29.319034 -56.776634 35.087911 -0.000000 0.000002 0.000001 35.088382 -2.311482 -15.431253 -2.135782 5.671943 -0.623120 0.000000 0.000000 0.000000 1.911758 5.457654 0.250404 -12.116934 22.696522 -4.358119 0.000000 0.000000 0.000000 1.911758 5.457654 0.250404 7.124645 -18.651626 -2.187853 -27.932335 15.768878 -32.151934 -52.503753 -79.963654 -42.362780 0.000000 0.000000 0.000000 1.911758 5.457654 0.250404 0.481422 28.460029 19.320846 -54.296251 -0.269323 17.138949 -33.555852 61.774744 30.127227 0.000000 0.000000 0.000000 
7.534996 54.431854 96.139221 0.000000 0.000000 0.000000 29.779755 -56.624457 35.289067 -62.590419 -43.416436 30.792344 86.742938 3.303966 -43.603190 -12.948818 -2.746219 -20.807570 0.000000 0.000000 0.000000 29.779755 -56.624457 35.289067 -84.060654 24.338565 -19.260765 98.152749 6.220033 0.011085 -25.953851 -3.082066 17.451500 0.000000 0.000000 0.000000 29.779755 -56.624457 35.289067 0.000000 0.000000 0.000000 34.198341 -2.484515 -16.000113 -1.873222 5.586115 -0.555359 0.000000 0.000000 0.000000 2.077621 5.368874 0.484105 -12.370053 22.770476 -4.044475 0.000000 0.000000 0.000000 2.077621 5.368874 0.484105 6.965520 -19.294371 -2.102323 -28.134852 15.072522 -32.000529 -44.720824 -79.216937 -34.965910 0.000000 0.000000 0.000000 2.077621 5.368874 0.484105 0.326728 28.032097 19.689714 -54.046071 0.106957 18.102725 -34.543091 63.125585 31.386348 0.000000 0.000000 0.000000 
7.642983 54.793526 96.894302 0.000000 0.000000 0.000000 29.576949 -56.239238 34.622584 -62.818957 -44.160281 30.078210 87.274416 3.502924 -44.407937 -13.511568 -2.931058 -20.144837 0.000000 0.000000 0.000000 29.576949 -56.239238 34.622584 -82.675171 23.859777 -20.720110 96.979056 6.762508 0.045325 -25.951215 -3.212579 17.811779 0.000000 0.000000 0.000000 29.576949 -56.239238 34.622584 0.000000 0.000000 0.000000 33.200996 -2.442455 -15.695249 -1.446990 5.422988 -0.586295 0.000000 0.000000 0.000000 2.406705 5.157382 0.405542 -12.821122 22.734741 -3.664003 0.000000 0.000000 0.000000 2.406705 5.157382 0.405542 6.453784 -19.703330 -2.089422 -28.300100 14.446699 -31.890126 -38.149653 -78.327503 -28.795739 0.000000 0.000000 0.000000 2.406705 5.157382 0.405542 -0.249761 27.328318 20.070164 -53.669574 -0.506377 18.926652 -36.260173 64.863848 33.429726 0.000000 0.000000 0.000000 
7.619762 55.293221 97.643875 0.000000 0.000000 0.000000 29.623111 -55.900116 33.973381 -62.995149 -43.983655 29.664912 87.222028 3.453619 -44.585993 -14.124811 -3.079685 -19.180619 0.000000 0.000000 0.000000 29.623111 -55.900116 33.973381 -81.165125 22.978080 -21.892896 95.577658 7.122861 0.042821 -26.033498 -3.378419 18.132627 0.000000 0.000000 0.000000 29.623111 -55.900116 33.973381 -0.000002 0.000000 0.000000 31.998586 -2.188148 -15.195926 -0.977212 5.239295 -0.628018 0.000000 0.000000 0.000000 2.798394 5.021171 0.200400 -13.507332 22.638233 -3.211969 0.000000 0.000000 0.000000 2.798394 5.021171 0.200400 5.671751 -19.772163 -2.223025 -28.539459 13.287406 -31.982142 -30.990665 -76.716371 -22.028986 0.000000 0.000000 0.000000 2.798394 5.021171 0.200400 -0.985394 26.476614 20.357884 -53.163713 -2.091489 19.482322 -39.765894 67.368089 37.378842 0.000000 0.000000 0.000000 
7.546968 55.912552 98.326660 0.000000 0.000000 0.000000 29.562333 -55.654915 33.358606 -63.602250 -42.319719 28.796481 86.383144 3.127861 -43.506710 -14.637703 -2.828400 -17.961524 0.000000 0.000000 0.000000 29.562333 -55.654915 33.358606 -79.519945 21.991181 -22.671525 94.032895 7.096925 -0.250819 -26.078434 -3.598985 18.606439 0.000000 0.000000 0.000000 29.562333 -55.654915 33.358606 -0.000001 -0.000002 -0.000000 30.505025 -2.003876 -14.819168 -0.440114 5.095503 -0.749303 0.000000 0.000000 0.000000 3.273248 4.907278 0.109044 -14.420543 22.453238 -2.705964 0.000000 0.000000 0.000000 3.273248 4.907278 0.109044 4.715149 -19.580583 -2.384832 -28.436598 12.202658 -32.669515 -25.317551 -74.838055 -16.768002 0.000000 0.000000 0.000000 3.273248 4.907278 0.109044 -1.727755 25.480222 20.509603 -52.520268 -4.044646 20.085650 -44.435848 69.865513 42.490211 0.000000 0.000000 0.000000 
7.427549 56.668602 98.972641 0.000000 0.000000 0.000000 29.500786 -55.615966 32.856017 -62.626667 -41.957654 28.736119 85.419548 3.260672 -43.972198 -15.037630 -2.559972 -16.944436 0.000000 0.000000 0.000000 29.500786 -55.615966 32.856017 -77.682774 21.060601 -23.328911 92.207164 7.099260 -0.365852 -26.015101 -3.749064 18.931138 0.000000 0.000000 0.000000 29.500786 -55.615966 32.856017 0.000000 -0.000001 0.000001 28.798762 -1.883986 -14.918204 0.139928 5.044811 -0.799695 0.000000 0.000000 0.000000 3.774946 4.897883 0.244575 -15.454102 22.260669 -2.134487 0.000000 0.000000 0.000000 3.774946 4.897883 0.244575 3.779291 -19.299873 -2.558619 -28.499596 10.733478 -33.466653 -20.073181 -72.353792 -11.946593 0.000000 0.000000 0.000000 3.774946 4.897883 0.244575 -2.283486 24.495647 20.457923 -52.061987 -5.949155 20.419481 -49.271035 71.817212 47.679652 0.000000 0.000000 0.000000 
7.265766 57.507370 99.572617 0.000000 0.000000 0.000000 29.113248 -55.761388 32.414760 -60.890283 -42.003416 28.610344 84.362474 3.760232 -45.009881 -15.404670 -2.153641 -16.121586 0.000000 0.000000 0.000000 29.113248 -55.761388 32.414760 -75.599990 20.339965 -23.999681 90.290784 7.123685 -0.477532 -25.901776 -3.853279 19.176048 0.000000 0.000000 0.000000 29.113248 -55.761388 32.414760 0.000000 -0.000001 0.000000 27.018903 -1.835813 -15.440780 0.839863 5.031871 -0.851272 0.000000 0.000000 0.000000 4.283905 4.874401 0.504214 -16.504071 22.207824 -1.461519 0.000000 0.000000 0.000000 4.283905 4.874401 0.504214 2.928295 -18.951490 -2.687718 -28.849025 9.081597 -34.070210 -15.632951 -68.985430 -7.951045 0.000000 0.000000 0.000000 4.283905 4.874401 0.504214 -2.844176 23.530038 20.169041 -51.626173 -7.883189 20.663351 -54.908102 73.502152 53.644214 0.000000 0.000000 0.000000 
